<svg width="167" height="167" viewBox="0 0 167 167" fill="none" xmlns="http://www.w3.org/2000/svg">
<g id="Group 18">
<circle id="Ellipse 1" cx="83.5" cy="83.5" r="78.5" fill="#D33333" stroke="#DEDEDE" stroke-width="10"/>
<g id="Group 17">
<path id="Vector" d="M111.915 84.8981L87.2667 80.2234L78.9797 56.4248L70.9052 59.1871L79.1922 82.7732L62.6182 101.897L68.9928 107.422L85.5668 88.2979L110.215 92.9726L111.915 84.8981Z" fill="#FFECDD"/>
<g id="Group">
<path id="Vector_2" d="M83.4417 72.998C77.4921 72.998 72.8174 77.6728 72.8174 83.6224C72.8174 89.572 77.4921 94.2468 83.4417 94.2468C89.3914 94.2468 94.0661 89.572 94.0661 83.6224C94.0661 77.6728 89.3914 72.998 83.4417 72.998ZM83.4417 87.8721C81.1044 87.8721 79.192 85.9598 79.192 83.6224C79.192 81.285 81.1044 79.3727 83.4417 79.3727C85.7791 79.3727 87.6915 81.285 87.6915 83.6224C87.6915 85.9598 85.7791 87.8721 83.4417 87.8721Z" fill="#FFECDD"/>
<path id="Vector_3" d="M118.927 89.9969C119.352 87.872 119.565 85.7472 119.565 83.6223C119.565 81.4974 119.352 79.3725 118.927 77.2477L125.939 72.148C126.789 71.5105 127.214 70.2356 126.577 69.1732L117.44 53.4491C116.802 52.3867 115.74 51.9617 114.677 52.5992L106.815 55.999C103.628 53.2366 99.8033 51.1118 95.766 49.6244L94.9161 40.9124C94.7036 39.8499 93.8537 39 92.7912 39H74.5173C73.4549 39 72.3925 39.8499 72.3925 40.9124L71.1175 49.6244C67.0803 51.1118 63.2555 53.2366 60.0682 55.999L52.2062 52.3867C51.1438 51.9617 49.8688 52.3867 49.4439 53.4491L40.3069 69.1732C39.6695 70.2356 40.0944 71.5105 40.9444 72.148L47.9565 77.2477C47.5315 79.3725 47.319 81.4974 47.319 83.6223C47.319 85.7472 47.5315 87.872 47.9565 89.9969L40.9444 95.0966C40.0944 95.7341 39.6695 97.009 40.3069 98.0714L49.4439 113.795C50.0813 114.858 51.1438 115.283 52.2062 114.645L60.0682 111.246C63.2555 114.008 67.0803 116.133 71.1175 117.62L71.9675 126.332C72.18 127.395 73.0299 128.245 74.0924 128.245H92.3663C93.4287 128.245 94.4911 127.395 94.4911 126.332L95.3411 117.62C99.3783 116.133 103.203 114.008 106.39 111.246L114.252 114.858C115.315 115.283 116.59 114.858 117.015 114.008L126.152 98.2839C126.789 97.2215 126.364 95.9465 125.514 95.3091L118.927 89.9969ZM83.4418 106.996C70.4801 106.996 60.0682 96.584 60.0682 83.6223C60.0682 70.6606 70.4801 60.2487 83.4418 60.2487C96.4035 60.2487 106.815 70.6606 106.815 83.6223C106.815 96.584 96.4035 106.996 83.4418 106.996Z" fill="#FFECDD"/>
</g>
</g>
</g>
</svg>
