<svg width="54" height="43" viewBox="0 0 54 43" fill="none" xmlns="http://www.w3.org/2000/svg">
<path d="M48.6 0H5.4C2.43 0 0.027 2.41875 0.027 5.375L0 37.625C0 40.5812 2.43 43 5.4 43H48.6C51.57 43 54 40.5812 54 37.625V5.375C54 2.41875 51.57 0 48.6 0ZM47.52 11.4219L28.431 23.3006C27.567 23.8381 26.433 23.8381 25.569 23.3006L6.48 11.4219C6.20926 11.2706 5.97218 11.0662 5.7831 10.8211C5.59402 10.576 5.45687 10.2952 5.37995 9.99581C5.30304 9.6964 5.28796 9.38458 5.33562 9.0792C5.38329 8.77382 5.49271 8.48125 5.65726 8.21918C5.82181 7.95712 6.03808 7.73101 6.29296 7.55455C6.54785 7.37809 6.83605 7.25494 7.14014 7.19255C7.44422 7.13017 7.75786 7.12985 8.06208 7.19161C8.36629 7.25337 8.65475 7.37593 8.91 7.55187L27 18.8125L45.09 7.55187C45.3453 7.37593 45.6337 7.25337 45.9379 7.19161C46.2421 7.12985 46.5558 7.13017 46.8599 7.19255C47.1639 7.25494 47.4522 7.37809 47.707 7.55455C47.9619 7.73101 48.1782 7.95712 48.3427 8.21918C48.5073 8.48125 48.6167 8.77382 48.6644 9.0792C48.712 9.38458 48.697 9.6964 48.62 9.99581C48.5431 10.2952 48.406 10.576 48.2169 10.8211C48.0278 11.0662 47.7907 11.2706 47.52 11.4219Z" fill="#D33333"/>
</svg>
