<svg width="41" height="41" viewBox="0 0 41 41" fill="none" xmlns="http://www.w3.org/2000/svg">
<path d="M35.8766 5.12661H35.8739L40.452 6.04169C40.6979 6.09086 40.9 6.27114 40.971 6.51425C41.0069 6.63235 41.0101 6.75795 40.9803 6.87772C40.9505 6.99749 40.8887 7.10693 40.8017 7.19442L37.0512 10.9476C36.6025 11.3955 35.9944 11.647 35.3604 11.6469H32.2518L24.4395 19.462C24.5886 20.0247 24.616 20.6128 24.5199 21.187C24.4239 21.7612 24.2066 22.3083 23.8825 22.7919C23.5584 23.2755 23.135 23.6845 22.6404 23.9917C22.1459 24.2988 21.5915 24.497 21.0144 24.5732C20.4372 24.6493 19.8504 24.6015 19.2932 24.4331C18.7359 24.2646 18.2209 23.9794 17.7825 23.5963C17.3442 23.2132 16.9925 22.7411 16.7509 22.2114C16.5092 21.6818 16.3833 21.1067 16.3813 20.5245C16.3818 19.896 16.5267 19.2759 16.8049 18.7123C17.0832 18.1487 17.4873 17.6566 17.986 17.274C18.4847 16.8914 19.0647 16.6287 19.6812 16.506C20.2977 16.3833 20.9341 16.404 21.5413 16.5665L29.3564 8.74868V5.64288C29.3564 5.00915 29.6077 4.40001 30.0556 3.95203L33.8088 0.198834C33.8963 0.111776 34.0058 0.0500544 34.1255 0.0202333C34.2453 -0.00958773 34.3709 -0.00639354 34.489 0.0294762C34.7321 0.100497 34.9124 0.302634 34.9616 0.548477L35.8766 5.12661Z" fill="black"/>
<path d="M4.08855 20.5237C4.09136 22.8672 4.59675 25.183 5.57062 27.3146C6.5445 29.4463 7.96421 31.3443 9.73399 32.8807C11.5038 34.417 13.5824 35.5559 15.8298 36.2206C18.0772 36.8852 20.441 37.0602 22.7617 36.7336C25.0824 36.4071 27.3061 35.5866 29.2828 34.3276C31.2595 33.0686 32.9432 31.4003 34.2203 29.4352C35.4974 27.4702 36.3382 25.2541 36.686 22.9364C37.0338 20.6188 36.8806 18.2535 36.2365 16.0002C36.1461 15.7369 36.1102 15.458 36.131 15.1804C36.1518 14.9028 36.2289 14.6324 36.3576 14.3856C36.4863 14.1387 36.6638 13.9206 36.8794 13.7446C37.0951 13.5686 37.3443 13.4383 37.6119 13.3617C37.8795 13.285 38.1599 13.2636 38.436 13.2988C38.7121 13.334 38.9782 13.425 39.218 13.5663C39.4579 13.7076 39.6664 13.8962 39.831 14.1207C39.9956 14.3452 40.1128 14.6008 40.1755 14.872C41.4225 19.2358 41.1856 23.8901 39.502 28.1047C37.8184 32.3193 34.7833 35.8558 30.8728 38.1593C26.9624 40.4628 22.3979 41.403 17.8955 40.8324C13.393 40.2618 9.20737 38.2127 5.9952 35.0065C2.78652 31.7951 0.735195 27.6091 0.16328 23.1056C-0.408635 18.6021 0.531248 14.0362 2.83537 10.1247C5.13948 6.21325 8.67735 3.17773 12.8935 1.49475C17.1097 -0.188242 21.7654 -0.423392 26.1297 0.826217C26.6494 0.978125 27.0877 1.32956 27.3491 1.80372C27.6104 2.27788 27.6734 2.83621 27.5244 3.35669C27.3753 3.87717 27.0263 4.31748 26.5535 4.5814C26.0808 4.84532 25.5228 4.91139 25.0015 4.76516C22.5611 4.06496 19.9914 3.94121 17.4949 4.40368C14.9985 4.86614 12.6436 5.90217 10.6159 7.43008C8.58823 8.958 6.94317 10.936 5.81043 13.2083C4.6777 15.4805 4.08824 17.9847 4.08855 20.5237Z" fill="black"/>
<path d="M12.2828 20.5248C12.2829 22.0179 12.6907 23.4825 13.4622 24.7609C14.2336 26.0392 15.3394 27.0826 16.6603 27.7786C17.9812 28.4746 19.4671 28.7968 20.9576 28.7104C22.4482 28.624 23.8869 28.1322 25.1185 27.2882C26.3498 26.4421 27.3265 25.2754 27.9427 23.9143C28.559 22.5533 28.7914 21.0496 28.6149 19.566C28.5671 19.206 28.6162 18.8398 28.7571 18.505C28.8979 18.1703 29.1254 17.8791 29.4162 17.6615C29.707 17.4439 30.0505 17.3078 30.4114 17.2671C30.7722 17.2264 31.1375 17.2826 31.4694 17.4299C31.8013 17.5754 32.0886 17.8062 32.3022 18.0989C32.5157 18.3917 32.6478 18.7358 32.6849 19.0962C32.9818 21.6314 32.482 24.1961 31.255 26.4343C30.028 28.6726 28.1347 30.4733 25.8378 31.5867C23.5409 32.7001 20.9544 33.0708 18.4373 32.6474C15.9201 32.224 13.5972 31.0275 11.791 29.224C9.98472 27.4205 8.7847 25.0994 8.35749 22.5829C7.93027 20.0664 8.29705 17.4793 9.40691 15.1807C10.5168 12.8822 12.3147 10.9861 14.5511 9.75573C16.7874 8.52535 19.3514 8.02168 21.887 8.31464C22.1585 8.33983 22.4223 8.41897 22.6628 8.54741C22.9033 8.67586 23.1158 8.85102 23.2877 9.06264C23.4597 9.27426 23.5876 9.51808 23.6641 9.7798C23.7406 10.0415 23.7641 10.3159 23.7332 10.5868C23.7023 10.8577 23.6176 11.1197 23.4841 11.3575C23.3506 11.5953 23.171 11.804 22.9558 11.9714C22.7406 12.1389 22.4942 12.2617 22.2309 12.3327C21.9676 12.4036 21.6928 12.4213 21.4226 12.3847C20.2744 12.2514 19.111 12.3625 18.0088 12.7107C16.9066 13.0589 15.8905 13.6364 15.0273 14.4052C14.1641 15.174 13.4733 16.1167 13.0003 17.1714C12.5273 18.2261 12.2828 19.3689 12.2828 20.5248Z" fill="black"/>
</svg>
