<svg width="167" height="167" viewBox="0 0 167 167" fill="none" xmlns="http://www.w3.org/2000/svg">
<circle cx="83.5" cy="83.5" r="78.5" fill="#D33333" stroke="#DEDEDE" stroke-width="10"/>
<path d="M68.8272 38V42.6238H62.5736L60.4413 68.3564H64.0523L64.8631 58.5688L72.7071 63.6172L64.1655 68.3564H66.0284V72.9284L72.6985 76.39L66.0284 79.073V81.2227H70.3729L78.0121 78.1499L78.2666 81.2227H81.8776L78.679 42.6238H72.4256V38H68.8272ZM66.0494 46.2425H75.3679L75.5664 48.6348L66.0494 46.2425ZM107.21 49.057V61.9233H110.501L126.402 56.593V105.548H130V49.057H107.21ZM65.5852 49.8557L73.0373 51.7293L65.088 55.8552L65.5852 49.8557ZM98.0143 52.6756V61.9233H104.012V52.6756H98.0143ZM114.952 52.6756H126.402V52.7789L118.871 55.3031L114.952 52.6756ZM110.809 54.2469L114.546 56.7524L110.809 58.0055V54.2469ZM76.0314 54.2473L76.6627 61.8666L69.8272 57.4675L76.0314 54.2473ZM76.9548 65.3935L77.7459 74.9375L68.4496 70.1126L76.9548 65.3935ZM94.8157 65.5419V74.7895H116.806V65.5419H94.8157ZM46.8369 71.975V81.2227H62.43V71.975H46.8369ZM49.8356 74.7895H56.2328V78.4082H49.8356V74.7895ZM101.213 78.4082V81.2227H110.409V78.4082H101.213ZM40.4397 84.8413V94.089H120.005V84.8413H40.4397ZM40.9395 97.7076L49.6357 109.368V103.337L45.4375 97.7076H40.9395ZM53.2341 97.7076V123.154C52.6143 123.081 52.0102 123.038 51.4349 123.038C48.8004 123.038 45.5841 123.9 42.8691 124.724C40.154 125.548 38 126.373 38 126.373L39.2808 129.755C39.2808 129.755 41.3259 128.972 43.9092 128.188C46.4925 127.404 49.673 126.657 51.4349 126.657C53.1965 126.657 56.3771 127.404 58.9604 128.188C61.5436 128.972 63.5887 129.755 63.5887 129.755L64.2292 130L64.8695 129.755C64.8695 129.755 66.9146 128.972 69.4979 128.188C72.0812 127.404 75.2618 126.657 77.0236 126.657C78.7852 126.657 81.9658 127.404 84.5491 128.188C87.1323 128.972 89.1774 129.755 89.1774 129.755L89.8179 130L90.4582 129.755C90.4582 129.755 92.5033 128.972 95.0866 128.188C97.6699 127.404 100.85 126.657 102.612 126.657C104.374 126.657 107.555 127.404 110.138 128.188C112.721 128.972 114.766 129.755 114.766 129.755L115.294 129.957L128.637 126.602L127.764 123.092L115.503 126.175C114.881 125.943 113.371 125.39 111.178 124.724C108.928 124.041 106.334 123.333 104.012 123.111V97.7076H98.0143V123.652C96.6559 123.959 95.2979 124.344 94.0465 124.724C91.9452 125.362 90.5084 125.884 89.8179 126.14C89.1272 125.884 87.6907 125.362 85.5892 124.724C82.8744 123.9 79.6578 123.038 77.0236 123.038C75.6034 123.038 74.0141 123.292 72.4256 123.652V97.7076H68.8272V124.614C68.7047 124.65 68.5783 124.687 68.4578 124.724C66.3565 125.362 64.9197 125.884 64.2292 126.14C63.5385 125.884 62.102 125.362 60.0005 124.724C59.7494 124.647 59.4901 124.571 59.2314 124.495V97.7076H53.2341ZM85.7197 97.7076L94.4159 109.368V103.337L90.2178 97.7076H85.7197ZM111.808 97.7076L107.61 103.337V109.368L116.306 97.7076H111.808Z" fill="#FFECDD"/>
</svg>
