<svg width="48" height="43" viewBox="0 0 48 43" fill="none" xmlns="http://www.w3.org/2000/svg">
<path d="M47.6341 8.89002L45.8044 5.041C45.5773 4.5679 45.2468 4.14949 44.8362 3.8154C44.4257 3.48131 43.9453 3.2397 43.4289 3.10767C37.6159 1.55631 30.9482 0.607274 24.0735 0.489746C17.298 0.592786 10.5613 1.51451 4.01625 3.23401C3.52134 3.37505 2.6575 4.08609 2.20159 5.02337L0.362932 8.89296C0.126914 9.36916 0.00386891 9.89147 0.00299944 10.4208V12.977L0 13.0975C0 14.2493 0.953821 15.1836 2.1296 15.1836L2.22858 15.1807H9.78117C10.3763 15.1669 10.9424 14.9255 11.3583 14.5082C11.7742 14.091 12.0069 13.5308 12.0067 12.9477L12.0007 12.7919V10.2945C12.001 9.9752 12.0829 9.66107 12.239 9.38082C12.3952 9.10056 12.6206 8.86313 12.8946 8.69023C16.3224 6.9067 20.1925 6.10146 24.0645 6.36612C27.928 6.1108 31.788 6.9124 35.2134 8.68141C35.6423 8.97229 35.9993 9.56287 35.9993 10.2357V12.7978C35.9789 13.0981 36.0208 13.3992 36.1223 13.6832C36.2238 13.9672 36.3828 14.2282 36.5898 14.4505C36.7968 14.6728 37.0476 14.8518 37.327 14.9767C37.6064 15.1017 37.9088 15.1701 38.2158 15.1777H45.7774L45.8704 15.1807C46.4352 15.1807 46.9769 14.9609 47.3763 14.5697C47.7756 14.1785 48 13.6478 48 13.0946L47.997 12.9682V10.4179C47.9951 9.88105 47.869 9.35163 47.6281 8.86946L47.6341 8.89002Z" fill="#D33333"/>
<path d="M36.0357 22.2659C34.0775 19.7332 33.0171 16.6111 33.0239 13.3986L33.0269 13.1435V12.2446H30.0182V15.2814H17.9832V12.2446H14.9744V13.2468L14.9774 13.4897C14.9818 16.7151 13.9127 19.8485 11.9416 22.3873L2.93945 33.5018V42.612H45.0619V33.5018L36.0357 22.2659ZM24.0007 36.5385C21.6068 36.5385 19.3109 35.5787 17.6182 33.8702C15.9254 32.1617 14.9744 29.8445 14.9744 27.4283C14.9744 25.0121 15.9254 22.6949 17.6182 20.9864C19.3109 19.2779 21.6068 18.3181 24.0007 18.3181C26.3946 18.3181 28.6904 19.2779 30.3832 20.9864C32.0759 22.6949 33.0269 25.0121 33.0269 27.4283C33.0269 29.8445 32.0759 32.1617 30.3832 33.8702C28.6904 35.5787 26.3946 36.5385 24.0007 36.5385Z" fill="#D33333"/>
<path d="M30.3659 27.7852C30.3851 28.5679 30.2346 29.3463 29.9234 30.0746C29.6122 30.8029 29.1466 31.4665 28.5537 32.0264C27.9609 32.5863 27.2528 33.0312 26.4712 33.335C25.6895 33.6388 24.8499 33.7954 24.0018 33.7956C23.1536 33.7958 22.314 33.6396 21.5321 33.3361C20.7503 33.0327 20.042 32.5881 19.4488 32.0285C18.8557 31.4688 18.3896 30.8055 18.078 30.0773C17.7665 29.3491 17.6156 28.5709 17.6344 27.7881C17.6712 26.2524 18.3578 24.7911 19.5472 23.7168C20.7367 22.6426 22.3345 22.0409 23.9986 22.0405C25.6626 22.0401 27.2607 22.6411 28.4508 23.7148C29.6408 24.7885 30.3283 26.2495 30.3659 27.7852Z" fill="#D33333"/>
</svg>
