<svg width="167" height="167" viewBox="0 0 167 167" fill="none" xmlns="http://www.w3.org/2000/svg">
<g id="Group 20">
<circle id="Ellipse 1" cx="83.5" cy="83.5" r="78.5" fill="#D33333" stroke="#DEDEDE" stroke-width="10"/>
<path id="Vector" d="M96.0839 47.0003C89.723 47 83.3644 49.3979 78.5166 54.226C71.663 61.0515 69.6425 70.8758 72.4525 79.473L47 104.822V108.829L73.5951 82.342C74.0247 83.2508 74.5086 84.14 75.055 85.0019L47 112.943V121H54.3386L82.7546 92.6994C83.6105 93.2428 84.4991 93.7333 85.4154 94.168L58.4695 121H62.6927L88.4331 95.364C97.0547 98.1416 106.902 96.124 113.744 89.3102C120.215 82.8659 122.337 73.7637 120.194 65.5317L103.745 81.9189L89.6779 78.194L85.9331 64.1849L102.387 47.7975C100.328 47.2681 98.2102 47.0002 96.0839 47V47.0003Z" fill="#FFECDD"/>
</g>
</svg>
