<svg width="139" height="139" viewBox="0 0 139 139" fill="none" xmlns="http://www.w3.org/2000/svg">
<circle cx="69.5" cy="69.5" r="64.5" fill="#D33333" stroke="#DEDEDE" stroke-width="10"/>
<path d="M63.4091 51.81C63.4091 46.015 59.7545 40.83 54.2727 39V50.285H45.1364V39C39.6545 40.83 36 46.015 36 51.81C36 57.605 39.6545 62.79 45.1364 64.62V98.17C45.1364 99.39 45.7455 100 46.6591 100H52.75C53.6636 100 54.2727 99.39 54.2727 98.475V64.925C59.7545 63.095 63.4091 57.91 63.4091 51.81ZM81.6818 57.3C69.8045 57.605 60.3636 67.06 60.3636 78.65C60.3636 90.545 69.8045 100 81.6818 100C93.5591 100 103 90.545 103 78.65C103 66.755 93.5591 57.3 81.6818 57.3ZM81.6818 93.9C73.1545 93.9 66.4545 87.19 66.4545 78.65C66.4545 70.11 73.1545 63.4 81.6818 63.4C90.2091 63.4 96.9091 70.11 96.9091 78.65C96.9091 87.19 90.2091 93.9 81.6818 93.9ZM78.6364 66.45V81.7L89.6 88.41L92.0364 84.75L83.2045 79.565V66.45H78.6364Z" fill="#FBFBFB"/>
</svg>
