<svg width="139" height="139" viewBox="0 0 139 139" fill="none" xmlns="http://www.w3.org/2000/svg">
<circle cx="69.5" cy="69.5" r="64.5" fill="#D33333" stroke="#DEDEDE" stroke-width="10"/>
<path d="M99.4184 43H78.7657C77.3476 43 75.3614 43.8227 74.3598 44.8243L48.7539 70.4302C48.2711 70.9153 48 71.5719 48 72.2563C48 72.9407 48.2711 73.5972 48.7539 74.0823L70.9177 96.2461C71.4028 96.7289 72.0593 97 72.7437 97C73.4281 97 74.0847 96.7289 74.5698 96.2461L100.176 70.6402C101.181 69.6351 102 67.6525 102 66.2343V45.5816C101.998 44.8975 101.726 44.2419 101.242 43.7581C100.758 43.2744 100.103 43.0018 99.4184 43ZM86.5105 63.6527C85.8322 63.6525 85.1606 63.5187 84.5341 63.2589C83.9075 62.9991 83.3383 62.6185 82.8588 62.1387C82.3794 61.659 81.9991 61.0895 81.7398 60.4627C81.4804 59.836 81.3471 59.1644 81.3473 58.4861C81.3475 57.8078 81.4813 57.1362 81.7411 56.5097C82.0009 55.8832 82.3815 55.3139 82.8613 54.8345C83.341 54.355 83.9105 53.9748 84.5373 53.7154C85.164 53.4561 85.8356 53.3227 86.5139 53.3229C87.8837 53.3234 89.1973 53.868 90.1655 54.8369C91.1338 55.8058 91.6775 57.1197 91.6771 58.4895C91.6766 59.8593 91.132 61.1729 90.1631 62.1412C89.1942 63.1094 87.8803 63.6532 86.5105 63.6527Z" fill="#DEDEDE"/>
<path d="M40.799 72.258L70 43H65.7057C64.2903 43 62.3081 43.8227 61.3084 44.8243L35.7524 70.4302C35.2705 70.9153 35 71.5719 35 72.2563C35 72.9407 35.2705 73.5972 35.7524 74.0823L57.873 96.2461C58.3571 96.7289 59.0124 97 59.6955 97C60.3786 97 61.0338 96.7289 61.518 96.2461L63.1326 94.6283L40.8025 72.2546L40.799 72.258Z" fill="#DEDEDE"/>
</svg>
