<svg width="139" height="139" viewBox="0 0 139 139" fill="none" xmlns="http://www.w3.org/2000/svg">
<circle cx="69.5" cy="69.5" r="64.5" fill="#D33333" stroke="#DEDEDE" stroke-width="10"/>
<path d="M74 89.2727H82.7273V98H74V89.2727ZM89.2727 89.2727H98V98H89.2727V89.2727ZM74 74H82.7273V82.7273H74V74ZM89.2727 74H98V82.7273H89.2727V74Z" fill="white"/>
<path d="M70.1429 88.75H42.2857V59H93.7143V69.625H98V59C97.9989 57.8732 97.547 56.7928 96.7435 55.996C95.94 55.1993 94.8506 54.7511 93.7143 54.75H80.8571V46.25C80.856 45.1232 80.4041 44.0428 79.6006 43.246C78.7972 42.4493 77.7077 42.0011 76.5714 42H59.4286C58.2923 42.0011 57.2028 42.4493 56.3994 43.246C55.5959 44.0428 55.144 45.1232 55.1429 46.25V54.75H42.2857C41.1494 54.7511 40.06 55.1993 39.2565 55.996C38.453 56.7928 38.0011 57.8732 38 59V88.75C38.0011 89.8768 38.453 90.9572 39.2565 91.754C40.06 92.5507 41.1494 92.9989 42.2857 93H70.1429V88.75ZM59.4286 46.25H76.5714V54.75H59.4286V46.25Z" fill="white"/>
</svg>
