<svg width="167" height="167" viewBox="0 0 167 167" fill="none" xmlns="http://www.w3.org/2000/svg">
<circle cx="83.5" cy="83.5" r="78.5" fill="#D33333" stroke="#DEDEDE" stroke-width="10"/>
<g clip-path="url(#clip0_1696_169)">
<path d="M62.0714 62.5C62.0714 68.2022 64.3291 73.6708 68.3477 77.7028C72.3663 81.7348 77.8168 84 83.5 84C89.1832 84 94.6337 81.7348 98.6523 77.7028C102.671 73.6708 104.929 68.2022 104.929 62.5C104.929 56.7978 102.671 51.3292 98.6523 47.2972C94.6337 43.2652 89.1832 41 83.5 41C77.8168 41 72.3663 43.2652 68.3477 47.2972C64.3291 51.3292 62.0714 56.7978 62.0714 62.5ZM77.8917 96.1273L81.0056 101.334L75.4308 122.146L69.404 97.4711C69.0692 96.1105 67.7634 95.2203 66.4074 95.573C54.6886 98.5125 46 109.162 46 121.843C46 124.699 48.3103 127 51.1395 127H115.86C118.706 127 121 124.682 121 121.843C121 109.162 112.311 98.5125 100.593 95.573C99.2366 95.2371 97.9308 96.1273 97.596 97.4711L91.5692 122.146L85.9944 101.334L89.1083 96.1273C90.1797 94.3301 88.8906 92.0625 86.8147 92.0625H80.202C78.1261 92.0625 76.8371 94.3469 77.9085 96.1273H77.8917Z" fill="#FFECDD"/>
</g>
<defs>
<clipPath id="clip0_1696_169">
<rect width="75" height="86" fill="white" transform="translate(46 41)"/>
</clipPath>
</defs>
</svg>
