<svg width="139" height="139" viewBox="0 0 139 139" fill="none" xmlns="http://www.w3.org/2000/svg">
<circle cx="69.5" cy="69.5" r="64.5" fill="#D33333" stroke="#DEDEDE" stroke-width="10"/>
<path d="M96 46.5H91V42.5013C91 40.575 89.5525 39 87.7875 39H71.7075C69.9475 39 68.5 40.575 68.5 42.5013V46.5H38.4262L31 61.5H36.1562V71.5H35.3212L31.1562 76.5L35.3212 81.5H36.2338V84.185C36.2338 84.8637 36.7575 85.4125 37.4062 85.4125C39.345 85.4125 40.9225 87.0675 40.9225 89.1012C40.9225 91.135 39.345 92.79 37.4062 92.79C35.4675 92.79 33.89 91.135 33.89 89.1012C33.89 88.4225 33.365 87.8737 32.7175 87.8737C32.0688 87.8737 31.545 88.4225 31.545 89.1012C31.5475 92.4938 34.175 95.25 37.4062 95.25C40.6363 95.25 43.2662 92.4938 43.2662 89.1025C43.2662 86.1338 41.25 83.6488 38.5787 83.08V81.5H39.49L43.6562 76.5L39.49 71.5H38.6562V61.5H68.5V70.4987C68.5 72.1587 69.5762 73.55 71 73.9075V114H74.2812V106.5L85.2188 110.25L74.2812 114H88.5V73.9062C89.925 73.55 91 72.1587 91 70.4987V61.5H96V57.75H93.4025L96 52.8188V46.5ZM36.8037 57.75L39.7238 51.7513L42.8813 57.75H36.8037ZM42.3312 50.25H47.5225L44.9275 55.1812L42.3312 50.25ZM46.9737 57.75L49.57 52.8188L52.1675 57.75H46.9737ZM51.6175 50.25H56.8088L54.2125 55.1812L51.6175 50.25ZM56.2612 57.75L58.8563 52.8188L61.4513 57.75H56.2612ZM60.9038 50.25H66.095L63.5 55.1812L60.9038 50.25ZM68.5 57.75H65.5462L68.1413 52.8188L68.5 53.5V57.75ZM85.2188 106.5L74.2812 102.75L85.2188 99V106.5ZM74.2812 99V91.5L85.2188 95.2525L74.2812 99ZM85.2188 91.5L74.2812 87.75L85.2188 84V91.5ZM74.2812 84V76.5025L85.2188 80.25L74.2812 84ZM85.2188 76.5025L77.925 74H85.2188V76.5025ZM87.0938 55.56C87.0938 56.7638 86.2487 57.75 85.2188 57.75H73.9663C72.9363 57.75 72.0938 56.7638 72.0938 55.56V44.9475C72.0938 43.7362 72.9363 42.75 73.9663 42.75H85.2188C86.2487 42.75 87.0938 43.7362 87.0938 44.9475V55.56ZM91.3563 55.1812L91 54.5037V50.25H93.9512L91.3563 55.1812Z" fill="white"/>
</svg>
