<svg width="53" height="35" viewBox="0 0 53 35" fill="none" xmlns="http://www.w3.org/2000/svg">
<path d="M52.7837 16.4854C52.7046 16.3167 50.8328 12.2646 46.6982 8.23333C41.1661 2.84792 34.1939 0 26.5016 0C18.8093 0 11.8371 2.84792 6.31141 8.23333C2.17679 12.2646 0.304992 16.3167 0.219522 16.4854C0.0747639 16.8054 0 17.1513 0 17.501C0 17.8508 0.0747639 18.1967 0.219522 18.5167C0.298582 18.6875 2.17038 22.7375 6.30713 26.7688C11.8371 32.1542 18.8093 35 26.5016 35C34.1939 35 41.1661 32.1542 46.6896 26.7688C50.8264 22.7375 52.6982 18.6875 52.7773 18.5167C52.923 18.1971 52.9989 17.8514 53 17.5017C53.0011 17.152 52.9274 16.8058 52.7837 16.4854ZM42.9418 23.3604C38.3542 27.7646 32.8243 30 26.5016 30C20.1789 30 14.649 27.7646 10.0678 23.3583C8.26514 21.6192 6.71449 19.6482 5.45884 17.5C6.71485 15.3526 8.26547 13.3824 10.0678 11.6437C14.6512 7.23542 20.1789 5 26.5016 5C32.8243 5 38.352 7.23542 42.9354 11.6437C44.7379 13.3822 46.2885 15.3525 47.5443 17.5C46.2885 19.6481 44.7379 21.6191 42.9354 23.3583L42.9418 23.3604ZM26.5016 8.33333C24.6421 8.33333 22.8244 8.87095 21.2783 9.87819C19.7322 10.8854 18.5271 12.3171 17.8155 13.9921C17.1039 15.6671 16.9178 17.5102 17.2805 19.2883C17.6433 21.0665 18.5387 22.6998 19.8536 23.9818C21.1684 25.2638 22.8437 26.1368 24.6674 26.4905C26.4912 26.8442 28.3815 26.6627 30.0995 25.9689C31.8174 25.2751 33.2858 24.1002 34.3188 22.5927C35.3519 21.0853 35.9033 19.313 35.9033 17.5C35.9005 15.0697 34.909 12.7397 33.1465 11.0212C31.3839 9.30275 28.9942 8.33609 26.5016 8.33333ZM26.5016 21.6667C25.6564 21.6667 24.8301 21.4223 24.1274 20.9645C23.4246 20.5066 22.8768 19.8559 22.5534 19.0945C22.2299 18.3332 22.1453 17.4954 22.3102 16.6871C22.4751 15.8789 22.8821 15.1364 23.4798 14.5537C24.0774 13.971 24.8389 13.5742 25.6679 13.4134C26.4969 13.2526 27.3561 13.3351 28.137 13.6505C28.9179 13.9659 29.5853 14.4999 30.0549 15.1851C30.5245 15.8703 30.7751 16.6759 30.7751 17.5C30.7751 18.6051 30.3249 19.6649 29.5234 20.4463C28.722 21.2277 27.635 21.6667 26.5016 21.6667Z" fill="black"/>
</svg>
